<?xml version="1.0" encoding="UTF-8"?>
<svg xmlns="http://www.w3.org/2000/svg" width="20" height="20" viewBox="0 0 20 20" fill="none">
  <g id="Icon/arrow right">
    <path id="Vector" fill-rule="evenodd" clip-rule="evenodd" d="M-0.00195351 9.99237C-0.00195353 9.6977 0.115114 9.41503 0.323494 9.2067C0.531863 8.99836 0.814488 8.88125 1.10917 8.88125L16.2049 8.88125L10.3237 3.00007C10.1213 2.79051 10.0093 2.50984 10.0118 2.2185C10.0144 1.92717 10.1313 1.6485 10.3373 1.44249C10.5433 1.23649 10.822 1.1196 11.1133 1.11705C11.4046 1.11449 11.6853 1.22649 11.8949 1.42894L19.6727 9.20681C19.881 9.41514 19.998 9.6977 19.998 9.99237C19.998 10.287 19.881 10.5696 19.6727 10.7779L11.8949 18.5558C11.7923 18.6619 11.6697 18.7466 11.5342 18.8048C11.3986 18.863 11.2528 18.8937 11.1053 18.895C10.9577 18.8963 10.8114 18.8681 10.6748 18.8123C10.5383 18.7564 10.4143 18.6739 10.3099 18.5696C10.2056 18.4653 10.1231 18.3412 10.0673 18.2046C10.0114 18.0681 9.98328 17.9218 9.9845 17.7742C9.98583 17.6267 10.0165 17.4809 10.0747 17.3453C10.1329 17.2098 10.2176 17.0872 10.3237 16.9847L16.2049 11.1035L1.10917 11.1035C0.814488 11.1035 0.531863 10.9864 0.323494 10.778C0.115114 10.5697 -0.0019535 10.287 -0.00195351 9.99237Z" fill="#FEC526"></path>
  </g>
</svg>
