<?xml version="1.0" encoding="UTF-8"?>
<svg xmlns="http://www.w3.org/2000/svg" width="24" height="24" viewBox="0 0 24 24" fill="none">
  <rect width="24" height="24" rx="4" fill="black"></rect>
  <g clip-path="url(#clip0_700_6946)">
    <path d="M12 6.26055C13.8703 6.26055 14.0918 6.26875 14.8273 6.30156C15.5109 6.33164 15.8801 6.44648 16.1262 6.54219C16.4516 6.66797 16.6867 6.82109 16.9301 7.06445C17.1762 7.31055 17.3266 7.54297 17.4523 7.86836C17.548 8.11445 17.6629 8.48633 17.693 9.16719C17.7258 9.90547 17.734 10.127 17.734 11.9945C17.734 13.8648 17.7258 14.0863 17.693 14.8219C17.6629 15.5055 17.548 15.8746 17.4523 16.1207C17.3266 16.4461 17.1734 16.6812 16.9301 16.9246C16.684 17.1707 16.4516 17.3211 16.1262 17.4469C15.8801 17.5426 15.5082 17.6574 14.8273 17.6875C14.0891 17.7203 13.8676 17.7285 12 17.7285C10.1297 17.7285 9.9082 17.7203 9.17266 17.6875C8.48906 17.6574 8.11992 17.5426 7.87383 17.4469C7.54844 17.3211 7.31328 17.168 7.06992 16.9246C6.82383 16.6785 6.67344 16.4461 6.54766 16.1207C6.45195 15.8746 6.33711 15.5027 6.30703 14.8219C6.27422 14.0836 6.26602 13.8621 6.26602 11.9945C6.26602 10.1242 6.27422 9.90273 6.30703 9.16719C6.33711 8.48359 6.45195 8.11445 6.54766 7.86836C6.67344 7.54297 6.82656 7.30781 7.06992 7.06445C7.31602 6.81836 7.54844 6.66797 7.87383 6.54219C8.11992 6.44648 8.4918 6.33164 9.17266 6.30156C9.9082 6.26875 10.1297 6.26055 12 6.26055ZM12 5C10.0996 5 9.86172 5.0082 9.11523 5.04102C8.37148 5.07383 7.86016 5.19414 7.41719 5.36641C6.95508 5.54687 6.56406 5.78477 6.17578 6.17578C5.78477 6.56406 5.54688 6.95508 5.36641 7.41445C5.19414 7.86016 5.07383 8.36875 5.04102 9.1125C5.0082 9.86172 5 10.0996 5 12C5 13.9004 5.0082 14.1383 5.04102 14.8848C5.07383 15.6285 5.19414 16.1398 5.36641 16.5828C5.54688 17.0449 5.78477 17.4359 6.17578 17.8242C6.56406 18.2125 6.95508 18.4531 7.41445 18.6309C7.86016 18.8031 8.36875 18.9234 9.1125 18.9562C9.85898 18.9891 10.0969 18.9973 11.9973 18.9973C13.8977 18.9973 14.1355 18.9891 14.882 18.9562C15.6258 18.9234 16.1371 18.8031 16.5801 18.6309C17.0395 18.4531 17.4305 18.2125 17.8187 17.8242C18.207 17.4359 18.4477 17.0449 18.6254 16.5855C18.7977 16.1398 18.918 15.6313 18.9508 14.8875C18.9836 14.141 18.9918 13.9031 18.9918 12.0027C18.9918 10.1023 18.9836 9.86445 18.9508 9.11797C18.918 8.37422 18.7977 7.86289 18.6254 7.41992C18.4531 6.95508 18.2152 6.56406 17.8242 6.17578C17.4359 5.7875 17.0449 5.54688 16.5855 5.36914C16.1398 5.19687 15.6313 5.07656 14.8875 5.04375C14.1383 5.0082 13.9004 5 12 5Z" fill="white"></path>
    <path d="M12.0004 8.4043C10.0152 8.4043 8.40465 10.0148 8.40465 12C8.40465 13.9852 10.0152 15.5957 12.0004 15.5957C13.9855 15.5957 15.5961 13.9852 15.5961 12C15.5961 10.0148 13.9855 8.4043 12.0004 8.4043ZM12.0004 14.3324C10.7125 14.3324 9.66793 13.2879 9.66793 12C9.66793 10.7121 10.7125 9.66758 12.0004 9.66758C13.2882 9.66758 14.3328 10.7121 14.3328 12C14.3328 13.2879 13.2882 14.3324 12.0004 14.3324Z" fill="white"></path>
    <path d="M16.5771 8.26206C16.5771 8.72691 16.1998 9.10152 15.7377 9.10152C15.2728 9.10152 14.8982 8.72417 14.8982 8.26206C14.8982 7.79722 15.2756 7.42261 15.7377 7.42261C16.1998 7.42261 16.5771 7.79995 16.5771 8.26206Z" fill="white"></path>
  </g>
  <defs>
    <clipPath id="clip0_700_6946">
      <rect width="14" height="14" fill="white" transform="translate(5 5)"></rect>
    </clipPath>
  </defs>
</svg>
