<?xml version="1.0" encoding="UTF-8"?>
<svg xmlns="http://www.w3.org/2000/svg" width="24" height="24" viewBox="0 0 24 24" fill="none">
  <rect width="24" height="24" rx="4" fill="black"></rect>
  <path d="M18.0002 17.9991V13.604C18.0002 11.444 17.5352 9.79395 15.0152 9.79395C13.8001 9.79395 12.9901 10.454 12.6601 11.084H12.6301V9.98895H10.2451V17.9991H12.7351V14.024C12.7351 12.974 12.9301 11.969 14.2201 11.969C15.4952 11.969 15.5102 13.154 15.5102 14.084V17.9841H18.0002V17.9991Z" fill="white"></path>
  <path d="M6.19499 9.99023H8.68504V18.0004H6.19499V9.99023Z" fill="white"></path>
  <path d="M7.44003 6C6.64502 6 6.00001 6.64501 6.00001 7.44002C6.00001 8.23504 6.64502 8.89505 7.44003 8.89505C8.23505 8.89505 8.88006 8.23504 8.88006 7.44002C8.88006 6.64501 8.23505 6 7.44003 6Z" fill="white"></path>
</svg>
