<?xml version="1.0" encoding="UTF-8"?>
<svg xmlns="http://www.w3.org/2000/svg" width="16" height="16" viewBox="0 0 16 16" fill="none">
  <g id="Group">
    <g id="Group_2">
      <path id="Vector" d="M15.8055 14.8631L11.2555 10.3131C12.1368 9.22446 12.6675 7.84113 12.6675 6.33449C12.6675 2.84253 9.82618 0.0012207 6.33422 0.0012207C2.84226 0.0012207 0.000976562 2.8425 0.000976562 6.33446C0.000976562 9.82643 2.84229 12.6677 6.33425 12.6677C7.84089 12.6677 9.22422 12.1371 10.3129 11.2558L14.8628 15.8057C14.9928 15.9357 15.1635 16.001 15.3342 16.001C15.5048 16.001 15.6755 15.9357 15.8055 15.8057C16.0661 15.5451 16.0661 15.1237 15.8055 14.8631ZM6.33425 11.3344C3.57694 11.3344 1.33431 9.09178 1.33431 6.33446C1.33431 3.57715 3.57694 1.33452 6.33425 1.33452C9.09156 1.33452 11.3342 3.57715 11.3342 6.33446C11.3342 9.09178 9.09153 11.3344 6.33425 11.3344Z" fill="black"></path>
    </g>
  </g>
</svg>
