<?xml version="1.0" encoding="UTF-8"?>
<svg xmlns="http://www.w3.org/2000/svg" width="189" height="56" viewBox="0 0 189 56" fill="none">
  <path d="M26.8616 0H0V26.8665H26.8616V0Z" fill="#FEC526"></path>
  <path d="M17.9969 22.7045V18.2657C17.9969 16.4314 18.0229 14.7614 18.1007 13.3251C17.5386 14.7095 16.5872 16.864 15.9473 18.1878L13.5085 23.3362L11.0696 18.1878C10.4383 16.8553 9.47835 14.7008 8.91622 13.3251C8.99405 14.7614 9.02 16.4314 9.02 18.2657V22.7045H4.18561V4.10132H8.91622L11.1994 9.06795C12.3063 11.4561 13.249 13.6365 13.5344 14.6749C13.8544 13.6106 14.7019 11.5945 15.8781 9.06795L18.1612 4.10132H22.8399V22.7045H18.0056H17.9969Z" fill="white"></path>
  <path d="M26.9388 29.125H0.07724V56.0002H26.9388V29.125Z" fill="#081A72"></path>
  <path d="M13.4476 52.1496C8.4056 52.1496 4.87711 48.7751 4.87711 42.5798C4.87711 36.3845 8.46614 32.958 13.5081 32.958C18.5587 32.958 22.0872 36.3325 22.0872 42.5279C22.0872 48.7232 18.4981 52.1496 13.4476 52.1496ZM13.4476 37.4574C11.3806 37.4574 10.2131 39.1793 10.2131 42.5365C10.2131 45.8937 11.4325 47.6675 13.5081 47.6675C15.5837 47.6675 16.7512 45.937 16.7512 42.5884C16.7512 39.2398 15.5231 37.4574 13.4562 37.4574" fill="white"></path>
  <path d="M56.1866 29.125H29.3337V55.9915H56.1866V29.125Z" fill="#081A72"></path>
  <path d="M45.506 37.7172V51.8297H40.3603V37.7172H35.154V33.2351H50.7122V37.7172H45.506Z" fill="white"></path>
  <path d="M56.1866 0H29.3337V26.8665H56.1866V0Z" fill="#081A72"></path>
  <path d="M44.3469 22.6439H35.4825V4.14453H44.4075C48.9997 4.14453 50.8764 5.85776 50.8764 8.95541C50.8764 10.9628 49.8905 11.8627 48.6538 12.5722C50.3229 13.2817 51.3002 14.5796 51.3002 16.6649C51.3002 20.4461 48.9997 22.6353 44.3469 22.6353M44.2432 8.18532H40.386V11.0926H44.2432C45.428 11.0926 45.8517 10.5129 45.8517 9.63897C45.8517 8.81697 45.4453 8.18532 44.2432 8.18532ZM44.4507 15.0036H40.386V18.5945H44.4248C45.6874 18.5945 46.2755 17.833 46.2755 16.7774C46.2755 15.6872 45.6701 15.0036 44.4507 15.0036Z" fill="white"></path>
  <path d="M79.2386 26.7935V19.6742C79.2386 18.8627 79.2386 17.7008 79.2754 17.3134C79.1095 17.7008 78.7408 18.6598 78.409 19.4345L75.1461 27.0148L71.9201 19.4345C71.6067 18.6598 71.2012 17.7008 71.0537 17.3134C71.0721 17.7008 71.109 18.8812 71.109 19.6742V26.7935H69.1918V13.3296H71.2749L74.2982 20.5042C74.63 21.2788 75.0355 22.2564 75.2014 22.8097C75.4042 22.2564 75.7913 21.2788 76.1232 20.5042L79.0727 13.3296H81.2295V26.7935H79.257H79.2386Z" fill="#081A72"></path>
  <path d="M86.3356 13.3296H84.3078V26.7935H86.3356V13.3296Z" fill="#081A72"></path>
  <path d="M93.4514 26.9963C91.4789 26.9963 89.7829 26.1663 88.6584 24.8199L90.0779 23.4182C90.9996 24.3957 92.3269 25.0044 93.5988 25.0044C95.4791 25.0044 96.3824 24.3588 96.3824 23.0493C96.3824 22.0165 95.6082 21.5001 93.3408 20.8176C90.5019 19.9692 89.1377 19.2684 89.1377 16.8522C89.1377 14.5283 91.1102 13.1082 93.5804 13.1082C95.4054 13.1082 96.788 13.7721 97.9862 14.9341L96.5668 16.3727C95.7188 15.5058 94.7602 15.0816 93.4329 15.0816C91.8476 15.0816 91.1839 15.8563 91.1839 16.76C91.1839 17.6638 91.8107 18.1617 94.115 18.8626C96.7695 19.6741 98.4286 20.5225 98.4286 22.9202C98.4286 25.3179 96.8986 26.9963 93.4514 26.9963Z" fill="#081A72"></path>
  <path d="M105.01 26.9963C103.056 26.9963 101.36 26.1663 100.217 24.8199L101.655 23.4182C102.558 24.3957 103.885 25.0044 105.157 25.0044C107.038 25.0044 107.941 24.3588 107.941 23.0493C107.941 22.0165 107.167 21.5001 104.899 20.8176C102.042 19.9692 100.696 19.2684 100.696 16.8522C100.696 14.4361 102.65 13.1082 105.12 13.1082C106.945 13.1082 108.328 13.7721 109.526 14.9341L108.107 16.3727C107.259 15.5058 106.282 15.0816 104.973 15.0816C103.388 15.0816 102.706 15.8563 102.706 16.76C102.706 17.7006 103.332 18.1617 105.655 18.8626C108.291 19.6741 109.95 20.5225 109.95 22.9202C109.95 25.3179 108.42 26.9963 104.973 26.9963" fill="#081A72"></path>
  <path d="M114.633 13.3296H112.605V26.7935H114.633V13.3296Z" fill="#081A72"></path>
  <path d="M121.767 26.9963C119.813 26.9963 118.098 26.1663 116.974 24.8199L118.412 23.4182C119.315 24.3957 120.642 25.0044 121.914 25.0044C123.795 25.0044 124.698 24.3588 124.698 23.0493C124.698 22.0165 123.924 21.5001 121.675 20.8176C118.817 19.9692 117.453 19.2684 117.453 16.8522C117.453 14.4361 119.426 13.1082 121.896 13.1082C123.721 13.1082 125.103 13.7721 126.302 14.9341L124.882 16.3727C124.034 15.5058 123.076 15.0816 121.748 15.0816C120.163 15.0816 119.499 15.8563 119.499 16.76C119.499 17.7006 120.108 18.1617 122.449 18.8626C125.103 19.6741 126.744 20.5225 126.744 22.9202C126.744 25.3179 125.214 26.9963 121.767 26.9963Z" fill="#081A72"></path>
  <path d="M132.901 26.9963C130.947 26.9963 129.251 26.1663 128.108 24.8199L129.564 23.4182C130.449 24.3957 131.795 25.0044 133.067 25.0044C134.947 25.0044 135.85 24.3588 135.85 23.0493C135.85 22.0165 135.058 21.5001 132.827 20.8176C129.988 19.9692 128.606 19.2684 128.606 16.8522C128.606 14.4361 130.578 13.1082 133.067 13.1082C134.892 13.1082 136.256 13.7721 137.454 14.9341L136.035 16.3727C135.187 15.5058 134.247 15.0816 132.901 15.0816C131.316 15.0816 130.652 15.8563 130.652 16.76C130.652 17.7006 131.279 18.1617 133.601 18.8626C136.256 19.6741 137.897 20.5225 137.897 22.9202C137.897 25.3179 136.367 26.9963 132.919 26.9963" fill="#081A72"></path>
  <path d="M148.773 26.7935L147.63 23.6027H142.266L141.141 26.7935H139.058L143.888 13.3296H146.026L150.93 26.7935H148.773ZM145.952 18.6967C145.621 17.7192 145.086 16.1699 144.939 15.5982C144.791 16.1884 144.312 17.7192 143.943 18.7152L142.874 21.7953H147.022L145.934 18.6967H145.952Z" fill="#081A72"></path>
  <path d="M156.995 26.9964C153.677 26.9964 151.944 24.8569 151.944 21.1313V13.3296H153.972V21.076C153.972 23.6212 155.022 24.986 157.032 24.986C159.152 24.986 160.147 23.6765 160.147 21.2235V13.3296H162.175V21.1866C162.175 24.9491 160.35 27.0148 156.995 27.0148" fill="#081A72"></path>
  <path d="M170.157 26.9963C166.673 26.9963 164.479 24.1375 164.479 20.0614C164.479 15.9854 166.691 13.1082 170.157 13.1082C172.351 13.1082 173.825 13.9935 174.729 15.6349L172.959 16.7231C172.277 15.635 171.539 15.137 170.157 15.137C167.816 15.137 166.525 17.0367 166.525 20.0614C166.525 23.0862 167.816 24.9859 170.157 24.9859C172.351 24.9859 173.217 23.5473 173.217 21.9611V21.9058H171.023V19.9692H175.282V21.537C175.282 25.0044 173.162 27.0147 170.157 27.0147" fill="#081A72"></path>
  <path d="M186.195 26.7935L185.071 23.6027H179.688L178.563 26.7935H176.48L181.31 13.3296H183.448L188.352 26.7935H186.195ZM183.375 18.6967C183.061 17.7192 182.508 16.1699 182.361 15.5982C182.213 16.1884 181.716 17.7192 181.384 18.7152L180.315 21.7953H184.462L183.375 18.6967Z" fill="#081A72"></path>
  <path d="M73.3939 42.6485H69.1909V32.0249H73.5414C75.3848 32.0249 76.5831 33.0024 76.5831 34.7915C76.5831 35.8796 76.0116 36.5436 75.2189 36.9125C76.0669 37.1523 77.0071 37.9084 77.0071 39.3839C77.0071 41.5419 75.6982 42.6485 73.3755 42.6485M73.523 33.5004H70.6656V36.2485H73.523C74.5737 36.2485 74.9793 35.603 74.9793 34.9021C74.9793 34.109 74.5737 33.5188 73.523 33.5188M73.5414 37.6871H70.6656V41.2099H73.4861C74.9055 41.2099 75.4217 40.4906 75.4217 39.4393C75.4217 38.388 74.7396 37.6687 73.5414 37.6687" fill="#081A72"></path>
  <path d="M82.5742 42.8144C79.8274 42.8144 78.0762 40.5459 78.0762 37.3367C78.0762 34.109 79.8274 31.8589 82.5742 31.8589C85.3209 31.8589 87.0906 34.109 87.0906 37.3367C87.0906 40.5643 85.3209 42.8144 82.5742 42.8144ZM82.5742 33.445C80.7123 33.445 79.7168 34.9574 79.7168 37.3367C79.7168 39.7159 80.7307 41.2099 82.5742 41.2099C84.4176 41.2099 85.4499 39.7159 85.4499 37.3367C85.4499 34.9574 84.436 33.445 82.5742 33.445Z" fill="#081A72"></path>
  <path d="M94.962 42.6485L94.0587 40.1217H89.8188L88.9524 42.6485H87.2933L91.1092 32.0249H92.7867L96.6579 42.6485H94.9804H94.962ZM92.7314 36.267C92.4918 35.5108 92.0493 34.275 91.9203 33.8324C91.8097 34.275 91.4226 35.4923 91.1461 36.2854L90.2796 38.7015H93.5794L92.7314 36.267Z" fill="#081A72"></path>
  <path d="M103.46 38.3142L105.617 42.6485H103.792L101.691 38.4433H99.2758V42.6485H97.7274V32.0249H102.373C104.216 32.0249 105.783 33.0209 105.783 35.1972C105.783 36.894 104.898 37.9453 103.46 38.3142ZM102.373 33.5373H99.2758V36.9494H102.373C103.442 36.9494 104.179 36.4145 104.179 35.2526C104.179 34.1459 103.46 33.5373 102.373 33.5373Z" fill="#081A72"></path>
  <path d="M110.392 42.6485H107.497V32.0249H110.392C113.23 32.0249 115.553 33.5742 115.553 37.3367C115.553 41.0808 113.157 42.63 110.392 42.63M110.392 33.5557H109.083V41.0808H110.392C112.917 41.0808 113.931 39.5499 113.931 37.3183C113.931 35.0866 112.899 33.5557 110.392 33.5557Z" fill="#081A72"></path>
  <path d="M125.617 42.8144C122.889 42.8144 121.138 40.5459 121.138 37.3367C121.138 34.1275 122.889 31.8589 125.617 31.8589C128.346 31.8589 130.134 34.109 130.134 37.3367C130.134 40.5643 128.382 42.8144 125.617 42.8144ZM125.617 33.445C123.774 33.445 122.76 34.9574 122.76 37.3367C122.76 39.7159 123.792 41.2099 125.617 41.2099C127.442 41.2099 128.511 39.7159 128.511 37.3367C128.511 34.9574 127.498 33.445 125.617 33.445Z" fill="#081A72"></path>
  <path d="M133.157 33.5926V36.3776H136.198V37.9269H133.157V42.6485H131.553V32.0249H138.374V33.5926H133.157Z" fill="#081A72"></path>
  <path d="M148.346 33.5926V42.6485H146.761V33.5926H143.664V32.0249H151.425V33.5926H148.346Z" fill="#081A72"></path>
  <path d="M158.411 38.3142L160.587 42.6485H158.762L156.642 38.4433H154.264V42.6485H152.697V32.0249H157.361C159.204 32.0249 160.771 33.0209 160.771 35.1972C160.771 36.894 159.886 37.9453 158.43 38.3142M157.361 33.5373H154.264V36.9494H157.361C158.411 36.9494 159.167 36.4145 159.167 35.2526C159.167 34.0906 158.43 33.5373 157.361 33.5373Z" fill="#081A72"></path>
  <path d="M168.956 42.6485L168.071 40.1217H163.831L162.946 42.6485H161.287L165.121 32.0249H166.799L170.67 42.6485H168.974H168.956ZM166.725 36.267C166.467 35.5108 166.043 34.275 165.914 33.8324C165.804 34.275 165.435 35.4923 165.158 36.2854L164.31 38.7015H167.592L166.744 36.267H166.725Z" fill="#081A72"></path>
  <path d="M174.763 42.6485H171.868V32.0249H174.763C177.62 32.0249 179.924 33.5742 179.924 37.3367C179.924 41.0808 177.528 42.63 174.763 42.63M174.763 33.5557H173.454V41.0808H174.763C177.288 41.0808 178.302 39.5499 178.302 37.3183C178.302 35.0866 177.288 33.5557 174.763 33.5557Z" fill="#081A72"></path>
  <path d="M181.454 42.6485V32.0249H188.293V33.5926H183.04V36.2116H186.081V37.7609H183.04V41.0992H188.515V42.6485H181.454Z" fill="#081A72"></path>
</svg>
