<?xml version="1.0" encoding="UTF-8"?>
<svg xmlns="http://www.w3.org/2000/svg" width="24" height="24" viewBox="0 0 24 24" fill="none">
  <g id="Icon/Social Media">
    <rect id="Rectangle 4466" width="24" height="24" rx="4" fill="black"></rect>
    <path id="Vector" d="M18.8605 9.1251C18.8605 9.1251 18.7238 8.15986 18.3027 7.73604C17.7695 7.17822 17.1734 7.17549 16.9 7.14268C14.9422 7.00049 12.0027 7.00049 12.0027 7.00049H11.9973C11.9973 7.00049 9.05781 7.00049 7.1 7.14268C6.82656 7.17549 6.23047 7.17822 5.69727 7.73604C5.27617 8.15986 5.14219 9.1251 5.14219 9.1251C5.14219 9.1251 5 10.2599 5 11.3919V12.4528C5 13.5849 5.13945 14.7196 5.13945 14.7196C5.13945 14.7196 5.27617 15.6849 5.69453 16.1087C6.22773 16.6665 6.92774 16.6474 7.23945 16.7075C8.36055 16.8142 12 16.847 12 16.847C12 16.847 14.9422 16.8415 16.9 16.7021C17.1734 16.6692 17.7695 16.6665 18.3027 16.1087C18.7238 15.6849 18.8605 14.7196 18.8605 14.7196C18.8605 14.7196 19 13.5876 19 12.4528V11.3919C19 10.2599 18.8605 9.1251 18.8605 9.1251ZM10.5535 13.7407V9.80596L14.3352 11.7802L10.5535 13.7407Z" fill="white"></path>
  </g>
</svg>
